<?xml version="1.0" encoding="UTF-8" standalone="no"?>
<svg width="131px" height="48px" viewBox="0 0 131 48" version="1.1" xmlns="http://www.w3.org/2000/svg" xmlns:xlink="http://www.w3.org/1999/xlink">
    <!-- Generator: Sketch 41.2 (35397) - http://www.bohemiancoding.com/sketch -->
    <title>zabl_logo</title>
    <desc>Created with Sketch.</desc>
    <defs></defs>
    <g id="Site" stroke="none" stroke-width="1" fill="none" fill-rule="evenodd">
        <g id="Desktop-Copy-2" transform="translate(-635.000000, -80.000000)" fill="#498AFE">
            <path d="M636.024,96 L636.024,108.16 L644.088,108.16 L635,117.568 L635,126.72 L664.696,126.72 L664.696,114.56 L654.712,114.56 L663.8,105.152 L663.8,96 L636.024,96 Z M702.728,116.288 L702.728,110.272 C702.728,97.664 695.624,94.912 684.424,94.912 C680.008,94.912 674.632,96 671.368,96.96 L671.368,107.84 C675.272,106.496 678.92,105.792 682.632,105.792 C686.728,105.792 688.52,106.624 688.52,108.8 L688.52,109.312 C686.92,108.928 684.104,108.736 682.888,108.736 C676.168,108.736 669.192,110.848 669.192,118.656 C669.192,124.928 674.184,127.808 679.88,127.808 C683.976,127.808 687.176,126.72 689.8,124.608 C691.4,126.848 694.408,127.744 697.736,127.744 C700.104,127.744 703.752,127.232 705.544,126.4 L705.544,117.632 C705.16,117.696 704.712,117.76 704.264,117.76 C703.304,117.76 702.728,117.312 702.728,116.288 Z M686.728,115.136 C687.368,115.136 688.008,115.2 688.52,115.328 L688.52,118.72 C687.816,119.168 686.984,119.424 686.152,119.424 C684.936,119.424 683.72,118.912 683.72,117.44 C683.72,115.648 685.384,115.136 686.728,115.136 Z M709.528,81.92 L709.528,126.72 L723.16,126.72 L723.16,123.328 C725.528,125.888 728.92,127.808 732.824,127.808 C742.296,127.808 746.392,120.192 746.392,111.36 C746.392,102.528 742.296,94.912 732.824,94.912 C729.56,94.912 726.872,95.872 725.016,97.408 L725.016,81.92 L709.528,81.92 Z M730.392,111.36 C730.392,113.472 729.496,115.52 727.256,115.52 C726.296,115.52 725.4,115.008 725.016,114.624 L725.016,108.096 C725.336,107.712 726.232,107.2 727.256,107.2 C729.496,107.2 730.392,109.248 730.392,111.36 Z M749.656,80 L749.656,126.72 L765.144,126.72 L765.144,80 L749.656,80 Z" id="zabl_logo"></path>
        </g>
    </g>
</svg>